PathFileType	4	(X/Y/Z)	c:/Users/goper/Files/vsCode/490R/osim_files/C12/C12_Static.trc
DataRate	CameraRate	NumFrames	NumMarkers	Units                	OrigDataRate	OrigDataStartFrame	OrigNumFrames
120.00	120.00	5	36	mm	120.0	407	812
                Frame#	Time	LPSIS			LASIS			LTH1			LTH2			LTH3			LTH4			LLFE			LMFE			LSH1			LSH2			LSH3			LSH4			LLMAL			LMMAL			LCAL			LMTP5			LTOE			LMTP1			RPSIS			RASIS			RTH1			RTH2			RTH3			RTH4			RLFE			RMFE			RSH1			RSH2			RSH3			RSH4			RLMAL			RMMAL			RCAL			RMTP1			RTOE			RMTP5		
		X1	Y1	Z1	X2	Y2	Z2	X3	Y3	Z3	X4	Y4	Z4	X5	Y5	Z5	X6	Y6	Z6	X7	Y7	Z7	X8	Y8	Z8	X9	Y9	Z9	X10	Y10	Z10	X11	Y11	Z11	X12	Y12	Z12	X13	Y13	Z13	X14	Y14	Z14	X15	Y15	Z15	X16	Y16	Z16	X17	Y17	Z17	X18	Y18	Z18	X19	Y19	Z19	X20	Y20	Z20	X21	Y21	Z21	X22	Y22	Z22	X23	Y23	Z23	X24	Y24	Z24	X25	Y25	Z25	X26	Y26	Z26	X27	Y27	Z27	X28	Y28	Z28	X29	Y29	Z29	X30	Y30	Z30	X31	Y31	Z31	X32	Y32	Z32	X33	Y33	Z33	X34	Y34	Z34	X35	Y35	Z35	X36	Y36	Z36

407	3.38333	-347.01974	1063.72888	433.55167	-168.75557	1031.41614	368.68222	-297.84778	762.94666	303.47568	-296.78754	718.44751	301.53812	-236.36926	761.05389	293.00644	-243.62433	716.29443	292.54153	-284.45752	535.04968	320.51392	-271.67252	513.45453	443.93604	-351.08905	446.45526	296.76379	-347.98959	400.41168	282.89929	-290.55212	445.56781	295.09668	-296.38196	399.24301	285.20752	-311.91632	103.00948	285.22653	-290.27731	103.17946	360.89383	-366.86206	72.43667	326.51233	-180.93442	40.04473	239.32184	-122.11332	70.24901	301.09537	-147.09735	41.66251	346.21042	-355.11429	1061.64990	543.75726	-171.05421	1024.89807	629.89600	-287.56216	762.96124	699.84204	-285.80234	717.22852	695.38104	-224.60970	758.21436	698.77240	-233.41159	711.12152	695.75842	-300.58725	536.43311	672.97986	-288.68610	520.38959	540.22400	-369.98312	442.32431	697.52832	-366.91699	400.18069	708.97058	-307.43445	438.68420	698.51526	-315.30902	398.06982	711.29156	-331.33847	102.31989	701.55261	-307.34329	112.92448	621.84521	-395.79636	63.48581	658.12231	-178.34427	47.36521	632.54364	-140.50587	67.39358	668.49139	-178.40213	41.16418	739.50305
408	3.39167	-346.91989	1063.72656	433.52283	-168.29718	1031.49255	368.55035	-297.76846	762.94666	303.42691	-296.76172	718.44226	301.52170	-236.33835	761.04437	292.99075	-243.57909	716.28949	292.52234	-284.43600	535.06342	320.47327	-271.67700	513.42920	443.91943	-351.09518	446.45795	296.75632	-347.98029	400.41974	282.89264	-290.52890	445.58945	295.08121	-296.35660	399.24841	285.18448	-311.89606	103.01433	285.22012	-290.26782	103.21758	360.86261	-366.87506	72.60812	326.38721	-180.91374	40.11599	239.26920	-122.11166	70.29852	301.03772	-147.06082	41.72634	346.15515	-355.07178	1061.63123	543.73254	-170.97881	1024.94092	629.83557	-287.52341	763.02533	699.79034	-285.78711	717.30713	695.32990	-224.49936	758.30469	698.68530	-233.37679	711.19128	695.68884	-300.56662	536.47388	672.93219	-288.67654	520.40588	540.20233	-369.99231	442.38724	697.49384	-366.93787	400.22992	708.92188	-307.40295	438.76355	698.44025	-315.28445	398.12506	711.25061	-331.33932	102.36217	701.52075	-307.31937	112.92720	621.83655	-395.85962	63.48271	658.17529	-178.30579	47.42943	632.48407	-140.48703	67.39881	668.46539	-178.38930	41.18342	739.49139
409	3.40000	-346.85724	1063.75000	433.52643	-168.22209	1031.51062	368.50778	-297.75305	762.93542	303.43161	-296.71014	718.43903	301.50772	-236.27495	761.04370	292.96375	-243.52873	716.30615	292.50693	-284.38962	535.07013	320.48434	-271.66714	513.43494	443.92252	-351.07077	446.46402	296.75571	-347.95712	400.41513	282.90094	-290.49149	445.59427	295.08734	-296.32336	399.26901	285.17648	-311.89398	103.00211	285.22794	-290.22574	103.24544	360.84430	-366.85315	72.69859	326.24692	-180.86415	40.16171	239.24989	-122.06348	70.35066	301.00000	-146.99321	41.78212	346.12436	-355.00946	1061.63623	543.72662	-170.86649	1024.97852	629.80157	-287.46368	763.09668	699.76526	-285.76724	717.35577	695.29468	-224.37268	758.36816	698.63977	-233.30386	711.21997	695.66577	-300.48947	536.52106	672.92297	-288.62527	520.43018	540.19373	-369.95148	442.41486	697.47125	-366.92618	400.25854	708.89655	-307.35559	438.79642	698.40546	-315.27011	398.15280	711.23853	-331.28510	102.42754	701.50464	-307.30460	112.93609	621.84235	-395.82578	63.53089	658.11816	-178.25946	47.48434	632.44263	-140.44218	67.42406	668.43274	-178.35928	41.20314	739.47522
410	3.40833	-346.78934	1063.77380	433.53650	-168.17348	1031.49524	368.50320	-297.71646	762.91156	303.43222	-296.65900	718.43445	301.49933	-236.24182	761.02972	292.95062	-243.48456	716.29834	292.50568	-284.34695	535.06683	320.48776	-271.63156	513.43951	443.92230	-351.03293	446.45660	296.74817	-347.93881	400.40927	282.88980	-290.46652	445.59586	295.08896	-296.27689	399.28662	285.18036	-311.86234	103.00063	285.23172	-290.19125	103.23709	360.86292	-366.83487	72.67371	326.24655	-180.99867	39.94218	239.42119	-122.04681	70.35056	301.01007	-146.96252	41.77516	346.14490	-354.90863	1061.62988	543.73181	-170.79660	1024.96399	629.80542	-287.41089	763.11823	699.77924	-285.71802	717.36121	695.30670	-224.30743	758.36078	698.64984	-233.23849	711.21533	695.66180	-300.49048	536.50531	672.91730	-288.60678	520.43835	540.19836	-369.92700	442.43915	697.48389	-366.89859	400.28952	708.91461	-307.34058	438.81613	698.41479	-315.24368	398.16284	711.23456	-331.23251	102.44467	701.51764	-307.26968	112.95119	621.84271	-395.80127	63.52185	658.10211	-178.25890	47.46991	632.43915	-140.41464	67.42282	668.45093	-178.33424	41.17785	739.48492
411	3.41667	-346.77991	1063.77185	433.49438	-168.14186	1031.43469	368.51385	-297.66898	762.92401	303.41077	-296.63364	718.44519	301.48315	-236.20125	761.00439	292.92883	-243.45200	716.27136	292.49167	-284.31821	535.05383	320.47812	-271.61472	513.43073	443.90097	-351.01266	446.44687	296.73315	-347.92166	400.41470	282.87613	-290.44601	445.57281	295.09225	-296.29245	399.25116	285.17819	-311.85016	102.98208	285.21933	-290.19003	103.20425	360.86554	-366.81857	72.55325	326.33173	-180.84871	40.11188	239.27818	-122.03532	70.28128	301.04196	-146.96104	41.72523	346.16895	-354.91492	1061.66431	543.71069	-170.75159	1024.91553	629.80121	-287.35971	763.07526	699.76727	-285.64468	717.32257	695.31628	-224.27248	758.31714	698.65149	-233.22162	711.17334	695.64636	-300.48026	536.45874	672.90204	-288.59058	520.42676	540.19452	-369.90671	442.40384	697.48218	-366.85999	400.26260	708.89471	-307.33246	438.77911	698.42719	-315.21390	398.13904	711.22986	-331.20761	102.40131	701.54077	-307.25354	112.93477	621.84106	-395.79361	63.48621	658.13440	-178.23483	47.40863	632.48608	-140.42117	67.36745	668.45593	-178.32568	41.13646	739.49323
